<svg xmlns="http://www.w3.org/2000/svg" xmlns:xlink="http://www.w3.org/1999/xlink" width="500" zoomAndPan="magnify" viewBox="0 0 375 374.999991" height="500" preserveAspectRatio="xMidYMid meet" version="1.0"><defs><clipPath id="9724fc0996"><path d="M 144 160 L 269.375 160 L 269.375 266.550781 L 144 266.550781 Z M 144 160 " clip-rule="nonzero"/></clipPath><clipPath id="fcf220be25"><path d="M 120.125 117.300781 L 246 117.300781 L 246 224 L 120.125 224 Z M 120.125 117.300781 " clip-rule="nonzero"/></clipPath><clipPath id="4a8b8b99ff"><path d="M 110 82 L 237 82 L 237 158 L 110 158 Z M 110 82 " clip-rule="nonzero"/></clipPath><clipPath id="d4ab831e93"><path d="M 117.960938 75.738281 L 237.398438 93.488281 L 224.9375 177.320312 L 105.5 159.566406 Z M 117.960938 75.738281 " clip-rule="nonzero"/></clipPath><clipPath id="f7f028e9cd"><path d="M 117.960938 75.738281 L 237.398438 93.488281 L 215.34375 241.859375 L 95.90625 224.105469 Z M 117.960938 75.738281 " clip-rule="nonzero"/></clipPath><clipPath id="e6695c5b5a"><path d="M 130 117 L 229 117 L 229 178 L 130 178 Z M 130 117 " clip-rule="nonzero"/></clipPath><clipPath id="837535171d"><path d="M 117.960938 75.738281 L 237.398438 93.488281 L 224.9375 177.320312 L 105.5 159.566406 Z M 117.960938 75.738281 " clip-rule="nonzero"/></clipPath><clipPath id="4accb28468"><path d="M 117.960938 75.738281 L 237.398438 93.488281 L 215.34375 241.859375 L 95.90625 224.105469 Z M 117.960938 75.738281 " clip-rule="nonzero"/></clipPath></defs><rect x="-37.5" width="450" fill="#ffffff" y="-37.499999" height="449.999989" fill-opacity="1"/><rect x="-37.5" width="450" fill="#ffffff" y="-37.499999" height="449.999989" fill-opacity="1"/><g clip-path="url(#9724fc0996)"><path fill="#be9eff" d="M 262.453125 160.269531 C 262.867188 161.117188 263.261719 162.035156 263.644531 162.9375 C 265.988281 168.476562 267.632812 174.210938 268.574219 180.101562 C 269.203125 184.011719 269.515625 187.984375 269.515625 192.007812 C 269.515625 202.085938 267.539062 211.867188 263.644531 221.082031 C 259.878906 229.976562 254.496094 237.964844 247.640625 244.824219 C 240.785156 251.679688 232.796875 257.066406 223.902344 260.828125 C 214.6875 264.726562 204.90625 266.707031 194.828125 266.707031 C 184.75 266.707031 174.964844 264.746094 165.75 260.847656 C 157.757812 257.464844 150.496094 252.816406 144.128906 246.90625 L 194.824219 246.90625 C 225.066406 246.90625 249.671875 222.253906 249.671875 192.011719 C 249.671875 187.925781 249.21875 183.921875 248.367188 180.058594 L 194.832031 180.058594 L 194.832031 180.097656 C 188.167969 180.101562 182.855469 185.496094 182.855469 192.082031 C 182.855469 198.667969 188.21875 204.070312 194.824219 204.070312 L 224.3125 204.070312 C 222.734375 207.929688 220.375 211.496094 217.316406 214.554688 C 211.308594 220.558594 203.320312 223.828125 194.824219 223.828125 C 186.328125 223.828125 178.339844 220.527344 172.332031 214.53125 C 166.324219 208.527344 163.011719 200.542969 163.011719 192.042969 C 163.011719 183.542969 166.324219 175.558594 172.339844 169.554688 C 178.347656 163.558594 186.335938 160.269531 194.832031 160.269531 Z M 262.453125 160.269531 " fill-opacity="1" fill-rule="nonzero"/></g><g clip-path="url(#fcf220be25)"><path fill="#925fe2" d="M 120.140625 192.007812 C 120.140625 181.933594 122.117188 172.140625 126.015625 162.925781 C 129.777344 154.03125 135.160156 146.042969 142.015625 139.1875 C 148.871094 132.332031 156.859375 126.945312 165.753906 123.179688 C 174.96875 119.285156 184.753906 117.300781 194.832031 117.300781 C 204.90625 117.300781 214.691406 119.265625 223.90625 123.164062 C 231.902344 126.542969 239.164062 131.191406 245.53125 137.105469 L 194.832031 137.105469 C 164.585938 137.105469 139.984375 161.75 139.984375 191.996094 C 139.984375 203.851562 143.765625 214.8125 150.1875 223.863281 L 127.246094 223.863281 C 126.820312 222.898438 126.40625 222.023438 126.015625 221.097656 C 122.117188 211.878906 120.140625 202.089844 120.140625 192.007812 Z M 120.140625 192.007812 " fill-opacity="1" fill-rule="nonzero"/></g><g clip-path="url(#4a8b8b99ff)"><g clip-path="url(#d4ab831e93)"><g clip-path="url(#f7f028e9cd)"><path fill="#be9eff" d="M 110.160156 128.398438 L 124.757812 132.496094 L 117.921875 156.128906 L 125.0625 157.128906 L 128.597656 133.636719 L 134.613281 135.269531 C 135.082031 137.648438 136.175781 141.777344 137.632812 143.871094 C 142.300781 139.117188 144.316406 131.1875 159.628906 122.21875 C 173.066406 114.347656 190.199219 112.085938 205.746094 116.550781 C 210.210938 117.832031 213.460938 119.703125 217.261719 120.984375 L 216.015625 114.34375 L 231.273438 103.746094 C 232.46875 103.007812 232.730469 102.84375 233.859375 101.917969 L 236.039062 99.914062 L 165.066406 82.738281 C 162.457031 85.894531 142.789062 101.191406 137.730469 105.667969 Z M 110.160156 128.398438 " fill-opacity="1" fill-rule="evenodd"/></g></g></g><g clip-path="url(#e6695c5b5a)"><g clip-path="url(#837535171d)"><g clip-path="url(#4accb28468)"><path fill="#925fe2" d="M 191.96875 227.097656 C 159.167969 222.621094 136.570312 189.4375 149.839844 155.644531 C 158.683594 133.125 181.949219 120.738281 204.511719 123.257812 C 218.132812 124.78125 220.640625 128.734375 228.023438 131.859375 L 226.945312 130.625 C 226.859375 130.539062 226.753906 130.445312 226.664062 130.367188 C 226.164062 129.910156 225.710938 129.609375 225.21875 129.25 C 181.117188 97.304688 118.683594 136.941406 132.1875 192.109375 C 136.574219 210.027344 149.082031 224.882812 166.023438 232.289062 C 173.78125 235.683594 173.164062 235.402344 180.316406 232.792969 C 182.816406 231.882812 190.828125 228.671875 191.96875 227.097656 Z M 191.96875 227.097656 " fill-opacity="1" fill-rule="evenodd"/></g></g></g></svg>